<?xml version="1.0" encoding="UTF-8" standalone="no"?>
<!DOCTYPE svg PUBLIC "-//W3C//DTD SVG 1.1//EN" "http://www.w3.org/Graphics/SVG/1.1/DTD/svg11.dtd">
<svg width="100%" height="100%" viewBox="0 0 51 51" version="1.1" xmlns="http://www.w3.org/2000/svg" xmlns:xlink="http://www.w3.org/1999/xlink" xml:space="preserve" style="fill-rule:evenodd;clip-rule:evenodd;stroke-linejoin:round;stroke-miterlimit:1.41421;">
    <g transform="matrix(1.03431,0,0,1.03431,0.14325,-1.88039)">
        <g transform="matrix(1.41599e-16,2.31249,-2.27348,1.39211e-16,55.4816,-63.1587)">
            <path d="M43.872,4.483C42.31,3.609 40.55,3.15 38.76,3.15C37.131,3.15 35.524,3.53 34.068,4.26L38.76,13.62L43.872,4.483Z" style="fill:rgb(87,82,108);"/>
        </g>
        <g transform="matrix(1.41599e-16,2.31249,-2.27348,1.39211e-16,55.4816,-63.1587)">
            <path d="M48.034,8.76C47.083,6.945 45.62,5.449 43.826,4.457L38.76,13.62L48.034,8.76Z" style="fill:rgb(1,171,151);"/>
        </g>
        <g transform="matrix(1.41599e-16,2.31249,-2.27348,1.39211e-16,55.4816,-63.1587)">
            <path d="M34.068,4.259C30.526,6.035 28.289,9.658 28.289,13.62C28.289,19.399 32.981,24.091 38.76,24.091C44.538,24.091 49.23,19.399 49.23,13.62C49.23,11.906 48.809,10.218 48.005,8.705L38.76,13.62L34.068,4.259Z" style="fill:rgb(226,200,76);"/>
        </g>
    </g>
</svg>
